<svg width="1920" height="1080" viewBox="0 0 1920 1080" fill="none" xmlns="http://www.w3.org/2000/svg">
<rect width="1920" height="1080" fill="#1E1E1E"/>
<rect width="1920" height="1080" fill="black"/>
<rect x="138" y="101" width="1684" height="878" rx="439" fill="url(#paint0_radial_0_1)"/>
<path d="M1562.5 760C1562.5 839.752 1497.63 904.5 1417.5 904.5C1337.37 904.5 1272.5 839.752 1272.5 760C1272.5 680.248 1337.37 615.5 1417.5 615.5C1497.63 615.5 1562.5 680.248 1562.5 760Z" stroke="url(#paint1_radial_0_1)" stroke-width="37"/>
<path d="M646.5 748C646.5 827.752 581.635 892.5 501.5 892.5C421.365 892.5 356.5 827.752 356.5 748C356.5 668.248 421.365 603.5 501.5 603.5C581.635 603.5 646.5 668.248 646.5 748Z" stroke="url(#paint2_radial_0_1)" stroke-width="37"/>
<path d="M487.234 763.632L493.826 756.72H509.634L515.842 763.632H487.234ZM517.89 760.816L510.978 754.224V738.48L517.89 732.208V760.816ZM492.738 734.512C491.245 733.317 489.73 732.144 488.194 730.992L492.738 727.6H510.21L514.69 730.992L510.21 734.512H492.738ZM487.17 698.608H515.778L509.442 705.52H493.762L487.17 698.608ZM485.122 729.968V701.36L492.034 707.568V723.44L485.122 729.968Z" fill="white"/>
<path d="M1216.5 475C1216.5 616.629 1101.47 731.5 959.5 731.5C817.531 731.5 702.5 616.629 702.5 475C702.5 333.371 817.531 218.5 959.5 218.5C1101.47 218.5 1216.5 333.371 1216.5 475Z" stroke="url(#paint3_radial_0_1)" stroke-width="37"/>
<circle cx="961" cy="475" r="240" fill="url(#paint4_radial_0_1)"/>
<path d="M898.304 520.224L887.936 510.336V486.72L898.304 477.312V520.224ZM898.016 431.04V473.952L887.648 464.64V440.928L898.016 431.04ZM929.101 524.448L938.989 514.08H962.701L972.013 524.448H929.101ZM926.221 477.312L936.589 487.296V510.816L926.221 520.224V477.312ZM975.085 520.224L964.717 510.336V486.72L975.085 477.312V520.224ZM937.357 480.768C935.117 478.976 932.845 477.216 930.541 475.488L937.357 470.4H963.565L970.285 475.488L963.565 480.768H937.357ZM929.005 426.912H971.917L962.413 437.28H938.893L929.005 426.912ZM925.933 473.952V431.04L936.301 440.352V464.16L925.933 473.952ZM974.797 431.04V473.952L964.429 464.64V440.928L974.797 431.04ZM1005.88 524.448L1015.77 514.08H1039.48L1048.79 524.448H1005.88ZM1003 477.312L1013.37 487.296V510.816L1003 520.224V477.312ZM1051.87 520.224L1041.5 510.336V486.72L1051.87 477.312V520.224ZM1005.79 426.912H1048.7L1039.19 437.28H1015.67L1005.79 426.912ZM1002.71 473.952V431.04L1013.08 440.352V464.16L1002.71 473.952ZM1051.58 431.04V473.952L1041.21 464.64V440.928L1051.58 431.04Z" fill="white"/>
<path d="M1377.64 763.632L1384.23 756.72H1400.04L1406.25 763.632H1377.64ZM1408.3 760.816L1401.38 754.224V738.48L1408.3 732.208V760.816ZM1383.14 734.512C1381.65 733.317 1380.14 732.144 1378.6 730.992L1383.14 727.6H1400.62L1405.1 730.992L1400.62 734.512H1383.14ZM1377.58 698.608H1406.18L1399.85 705.52H1384.17L1377.58 698.608ZM1375.53 729.968V701.36L1382.44 707.568V723.44L1375.53 729.968ZM1459.74 760.816L1452.89 754.224V738.48L1459.74 732.208V760.816ZM1429.02 698.608H1457.69L1451.42 705.52H1435.61L1429.02 698.608ZM1459.55 701.36V729.968L1452.7 723.76V707.952L1459.55 701.36Z" fill="white"/>
<path d="M927.469 569.4V574.704L924.901 577.056V566.328L927.469 569.4ZM932.485 572.16C932.501 572.176 932.541 572.216 932.605 572.28C932.685 572.344 932.741 572.4 932.773 572.448C932.773 572.464 932.781 572.472 932.797 572.472L932.821 572.52L936.325 576.12L932.485 572.16ZM932.485 559.608C932.501 559.592 932.541 559.552 932.605 559.488C932.685 559.424 932.741 559.368 932.773 559.32L932.797 559.296C932.813 559.28 932.821 559.264 932.821 559.248L936.325 555.648L932.485 559.608ZM924.901 566.328L927.469 568.824V574.704L924.901 577.056V566.328ZM927.661 567.192C927.085 566.728 926.541 566.288 926.029 565.872L927.661 564.6H927.781L929.437 565.872L927.781 567.192H927.661ZM924.853 565.488V554.76L927.421 557.088V563.04L924.853 565.488ZM928.861 568.368H932.437C932.981 568.912 933.733 569.696 934.693 570.72C935.669 571.744 936.285 572.392 936.541 572.664L936.325 576.12L932.821 572.52L932.797 572.496C932.781 572.48 932.773 572.464 932.773 572.448L932.485 572.16L928.861 568.368ZM928.861 563.4L932.485 559.608C932.501 559.592 932.541 559.552 932.605 559.488C932.685 559.424 932.741 559.368 932.773 559.32L932.797 559.296C932.813 559.28 932.821 559.264 932.821 559.248L936.325 555.648L936.541 559.104C936.285 559.376 935.669 560.024 934.693 561.048C933.733 562.072 932.981 562.856 932.437 563.4H928.861ZM942.729 566.328L945.321 568.824V574.704L942.729 577.056V566.328ZM957.345 577.056L954.753 574.584V568.68L957.345 566.328V577.056ZM949.497 560.184L949.617 561.24L947.529 561.048L942.705 556.56L942.369 554.496L944.457 554.688L949.281 559.128L949.497 560.184ZM942.681 565.488V557.64L945.273 559.992V563.04L942.681 565.488ZM957.297 557.64V565.488L954.705 563.16V560.112L957.297 557.64ZM950.313 560.184L950.529 559.128L955.353 554.688L957.441 554.496L957.105 556.56L952.281 561.048L950.193 561.24L950.313 560.184ZM973.228 560.136L964.972 576.456V570.36L973.228 554.112V560.136ZM982.223 566.328L984.815 568.824V574.704L982.223 577.056V566.328ZM994.439 577.056L991.847 574.584V568.68L994.439 566.328V577.056ZM985.007 567.192C984.447 566.744 983.879 566.304 983.303 565.872L985.007 564.6H991.559L993.239 565.872L991.559 567.192H985.007ZM982.151 565.488V554.76L984.743 557.088V563.04L982.151 565.488ZM994.367 554.76V565.488L991.775 563.16V557.232L994.367 554.76Z" fill="#A5A5A5"/>
<path d="M946.665 915.4V920.704L944.097 923.056V912.328L946.665 915.4ZM951.681 918.16C951.697 918.176 951.737 918.216 951.801 918.28C951.881 918.344 951.937 918.4 951.969 918.448C951.969 918.464 951.977 918.472 951.993 918.472L952.017 918.52L955.521 922.12L951.681 918.16ZM951.681 905.608C951.697 905.592 951.737 905.552 951.801 905.488C951.881 905.424 951.937 905.368 951.969 905.32L951.993 905.296C952.009 905.28 952.017 905.264 952.017 905.248L955.521 901.648L951.681 905.608ZM944.097 912.328L946.665 914.824V920.704L944.097 923.056V912.328ZM946.857 913.192C946.281 912.728 945.737 912.288 945.225 911.872L946.857 910.6H946.977L948.633 911.872L946.977 913.192H946.857ZM944.049 911.488V900.76L946.617 903.088V909.04L944.049 911.488ZM948.057 914.368H951.633C952.177 914.912 952.929 915.696 953.889 916.72C954.865 917.744 955.481 918.392 955.737 918.664L955.521 922.12L952.017 918.52L951.993 918.496C951.977 918.48 951.969 918.464 951.969 918.448L951.681 918.16L948.057 914.368ZM948.057 909.4L951.681 905.608C951.697 905.592 951.737 905.552 951.801 905.488C951.881 905.424 951.937 905.368 951.969 905.32L951.993 905.296C952.009 905.28 952.017 905.264 952.017 905.248L955.521 901.648L955.737 905.104C955.481 905.376 954.865 906.024 953.889 907.048C952.929 908.072 952.177 908.856 951.633 909.4H948.057ZM961.924 912.328L964.516 914.824V920.704L961.924 923.056V912.328ZM976.54 923.056L973.948 920.584V914.68L976.54 912.328V923.056ZM968.692 906.184L968.812 907.24L966.724 907.048L961.9 902.56L961.564 900.496L963.652 900.688L968.476 905.128L968.692 906.184ZM961.876 911.488V903.64L964.468 905.992V909.04L961.876 911.488ZM976.492 903.64V911.488L973.9 909.16V906.112L976.492 903.64ZM969.508 906.184L969.724 905.128L974.548 900.688L976.636 900.496L976.3 902.56L971.476 907.048L969.388 907.24L969.508 906.184Z" fill="#807676"/>
<path d="M485.901 796.6V800.136L484.173 801.704V794.552L485.901 796.6ZM489.469 796.184L491.933 798.776L491.757 801.08C490.231 799.48 489.453 798.664 489.421 798.632C489.399 798.6 489.367 798.568 489.325 798.536C489.282 798.504 489.25 798.472 489.229 798.44L486.813 795.912L489.469 796.184ZM484.173 794.552L485.901 796.216V800.136L484.173 801.704V794.552ZM486.013 795.128C485.639 794.819 485.266 794.525 484.893 794.248L486.013 793.4H490.397L491.517 794.248L490.397 795.128H486.013ZM484.637 786.152H491.773L490.221 787.88H486.269L484.637 786.152ZM484.125 793.992V786.84L485.853 788.392V792.36L484.125 793.992ZM492.285 786.84V793.992L490.557 792.44V788.488L492.285 786.84ZM486.813 795.912H489.213C489.565 796.285 490.066 796.819 490.717 797.512C491.378 798.195 491.783 798.616 491.933 798.776L491.757 801.08C490.231 799.48 489.453 798.664 489.421 798.632C489.399 798.6 489.367 798.568 489.325 798.536C489.282 798.504 489.25 798.472 489.229 798.44L486.813 795.912ZM496.97 794.552L498.698 796.216V800.136L496.97 801.704V794.552ZM498.81 795.128C498.436 794.819 498.063 794.525 497.69 794.248L498.81 793.4H503.194L504.314 794.248L503.194 795.128H498.81ZM497.434 786.152H504.57L503.018 787.88H499.066L497.434 786.152ZM496.922 793.992V786.84L498.65 788.392V792.36L496.922 793.992ZM505.082 786.84V793.992L503.354 792.44V788.488L505.082 786.84ZM509.014 794.552L510.742 796.216V800.136L509.014 801.704V794.552ZM518.758 801.704L517.03 800.056V796.12L518.758 794.552V801.704ZM513.526 790.456L513.606 791.16L512.214 791.032L508.998 788.04L508.774 786.664L510.166 786.792L513.382 789.752L513.526 790.456ZM508.982 793.992V788.76L510.71 790.328V792.36L508.982 793.992ZM518.726 788.76V793.992L516.998 792.44V790.408L518.726 788.76ZM514.07 790.456L514.214 789.752L517.43 786.792L518.822 786.664L518.598 788.04L515.382 791.032L513.99 791.16L514.07 790.456Z" fill="#A5A5A5"/>
<path d="M1374.08 794.552L1375.81 796.216V800.136L1374.08 801.704V794.552ZM1375.92 795.128C1375.55 794.819 1375.17 794.525 1374.8 794.248L1375.92 793.4H1380.3L1381.42 794.248L1380.3 795.128H1375.92ZM1374.54 786.152H1381.68L1380.13 787.88H1376.17L1374.54 786.152ZM1374.03 793.992V786.84L1375.76 788.392V792.36L1374.03 793.992ZM1382.19 786.84V793.992L1380.46 792.44V788.488L1382.19 786.84ZM1387.58 802.408L1389.23 800.68H1393.18L1394.75 802.408H1387.58ZM1387.12 794.552L1388.83 796.216V800.136L1387.12 801.704V794.552ZM1388.96 795.128C1388.56 794.819 1388.19 794.525 1387.84 794.248L1388.96 793.4H1393.32L1394.44 794.248L1393.32 795.128H1388.96ZM1387.56 786.152H1394.7L1393.15 787.88H1389.2L1387.56 786.152ZM1387.07 793.992V786.84L1388.78 788.392V792.36L1387.07 793.992ZM1401.4 796.6V800.136L1399.67 801.704V794.552L1401.4 796.6ZM1404.97 796.184L1407.43 798.776L1407.26 801.08C1405.73 799.48 1404.95 798.664 1404.92 798.632C1404.9 798.6 1404.87 798.568 1404.82 798.536C1404.78 798.504 1404.75 798.472 1404.73 798.44L1402.31 795.912L1404.97 796.184ZM1399.67 794.552L1401.4 796.216V800.136L1399.67 801.704V794.552ZM1401.51 795.128C1401.14 794.819 1400.77 794.525 1400.39 794.248L1401.51 793.4H1405.9L1407.02 794.248L1405.9 795.128H1401.51ZM1400.14 786.152H1407.27L1405.72 787.88H1401.77L1400.14 786.152ZM1399.62 793.992V786.84L1401.35 788.392V792.36L1399.62 793.992ZM1407.78 786.84V793.992L1406.06 792.44V788.488L1407.78 786.84ZM1402.31 795.912H1404.71C1405.06 796.285 1405.57 796.819 1406.22 797.512C1406.88 798.195 1407.28 798.616 1407.43 798.776L1407.26 801.08C1405.73 799.48 1404.95 798.664 1404.92 798.632C1404.9 798.6 1404.87 798.568 1404.82 798.536C1404.78 798.504 1404.75 798.472 1404.73 798.44L1402.31 795.912ZM1413.17 802.408L1414.82 800.68H1418.77L1420.34 802.408H1413.17ZM1412.71 794.552L1414.42 796.216V800.136L1412.71 801.704V794.552ZM1413.16 786.152H1420.29L1418.74 787.88H1414.79L1413.16 786.152ZM1412.66 793.992V786.84L1414.37 788.392V792.36L1412.66 793.992ZM1425.97 802.408L1427.62 800.68H1431.57L1433.14 802.408H1425.97ZM1425.51 794.552L1427.22 796.216V800.136L1425.51 801.704V794.552ZM1427.35 795.128C1426.95 794.819 1426.58 794.525 1426.23 794.248L1427.35 793.4H1431.71L1432.83 794.248L1431.71 795.128H1427.35ZM1425.95 786.152H1433.09L1431.54 787.88H1427.59L1425.95 786.152ZM1425.46 793.992V786.84L1427.17 788.392V792.36L1425.46 793.992ZM1437.25 793.192V786.008L1438.98 787.592V791.544L1437.25 793.192ZM1446.99 786.008V793.192L1445.26 791.608V787.672L1446.99 786.008ZM1437.2 793.736L1438.93 795.384V799.336L1437.2 800.904V793.736ZM1446.94 800.904L1445.22 799.24V795.304L1446.94 793.736V800.904ZM1439.79 790.744V787.496L1444.34 795.144V798.408L1439.79 790.744ZM1455.77 801.704L1454.04 800.056V796.12L1455.77 794.552V801.704ZM1449.98 787.592C1449.61 787.293 1449.23 787.011 1448.86 786.744L1449.98 785.88H1459.8L1460.92 786.744L1459.8 787.592H1455.72V793.992L1454 792.44V788.488L1454.94 787.592H1449.98Z" fill="#A5A5A5"/>
<path d="M478.742 812.22V810.024L482.306 814.272L485.87 810.024V812.22L483.23 815.376L485.87 818.52V820.728L482.306 816.48L478.742 820.728V818.52L481.382 815.376L478.742 812.22ZM494.976 821.028L493.68 819.792V816.84L494.976 815.664V821.028ZM494.94 809.88V815.244L493.644 814.08V811.116L494.94 809.88ZM498.825 821.556L500.061 820.26H503.025L504.189 821.556H498.825ZM498.465 815.664L499.761 816.912V819.852L498.465 821.028V815.664ZM504.573 821.028L503.277 819.792V816.84L504.573 815.664V821.028ZM498.813 809.364H504.177L502.989 810.66H500.049L498.813 809.364ZM498.429 815.244V809.88L499.725 811.044V814.02L498.429 815.244ZM504.537 809.88V815.244L503.241 814.08V811.116L504.537 809.88ZM508.423 821.556L509.659 820.26H512.623L513.787 821.556H508.423ZM508.063 815.664L509.359 816.912V819.852L508.063 821.028V815.664ZM514.171 821.028L512.875 819.792V816.84L514.171 815.664V821.028ZM508.411 809.364H513.775L512.587 810.66H509.647L508.411 809.364ZM508.027 815.244V809.88L509.323 811.044V814.02L508.027 815.244ZM514.135 809.88V815.244L512.839 814.08V811.116L514.135 809.88ZM518.02 821.556L519.256 820.26H522.22L523.384 821.556H518.02ZM517.66 815.664L518.956 816.912V819.852L517.66 821.028V815.664ZM523.768 821.028L522.472 819.792V816.84L523.768 815.664V821.028ZM518.008 809.364H523.372L522.184 810.66H519.244L518.008 809.364ZM517.624 815.244V809.88L518.92 811.044V814.02L517.624 815.244ZM523.732 809.88V815.244L522.436 814.08V811.116L523.732 809.88Z" fill="#A5A5A5"/>
<path d="M908.786 875.668L912.494 871.78H921.386L924.878 875.668H908.786ZM907.706 857.992L911.594 861.736V870.556L907.706 874.084V857.992ZM911.882 859.288C911.042 858.616 910.19 857.956 909.326 857.308L911.882 855.4H921.71L924.23 857.308L921.71 859.288H911.882ZM908.75 839.092H924.842L921.278 842.98H912.458L908.75 839.092ZM925.922 840.64V856.732L922.034 853.24V844.348L925.922 840.64ZM937.579 875.668L941.287 871.78H950.179L953.671 875.668H937.579ZM954.823 874.084L950.935 870.376V861.52L954.823 857.992V874.084ZM940.675 859.288C939.835 858.616 938.983 857.956 938.119 857.308L940.675 855.4H950.503L953.023 857.308L950.503 859.288H940.675ZM937.543 839.092H953.635L950.071 842.98H941.251L937.543 839.092ZM936.391 856.732V840.64L940.279 844.132V853.06L936.391 856.732ZM966.372 875.668L970.08 871.78H978.972L982.464 875.668H966.372ZM965.292 857.992L969.18 861.736V870.556L965.292 874.084V857.992ZM983.616 874.084L979.728 870.376V861.52L983.616 857.992V874.084ZM969.468 859.288C968.628 858.616 967.776 857.956 966.912 857.308L969.468 855.4H979.296L981.816 857.308L979.296 859.288H969.468ZM966.336 839.092H982.428L978.864 842.98H970.044L966.336 839.092ZM965.184 856.732V840.64L969.072 844.132V853.06L965.184 856.732ZM983.508 840.64V856.732L979.62 853.24V844.348L983.508 840.64ZM1012.41 874.084L1008.52 870.376V861.52L1012.41 857.992V874.084ZM998.261 859.288C997.421 858.616 996.569 857.956 995.705 857.308L998.261 855.4H1008.09L1010.61 857.308L1008.09 859.288H998.261ZM993.977 856.732V840.64L997.865 844.132V853.06L993.977 856.732ZM1012.3 840.64V856.732L1008.41 853.24V844.348L1012.3 840.64Z" fill="white"/>
<path d="M1112 844V870H1134V882L1178.5 856.5L1134 831V844H1112Z" fill="url(#paint5_linear_0_1)"/>
<path d="M1105 776V802H1127V814L1171.5 788.5L1127 763V776H1105Z" fill="#1E261A"/>
<path d="M808.5 865V839H786.5V827L742 852.5L786.5 878V865H808.5Z" fill="url(#paint6_linear_0_1)"/>
<path d="M1412.13 838.486L1421.29 826.194L1419.51 836.326L1423.11 836.959L1413.9 849.171L1415.67 839.108L1412.13 838.486Z" fill="white"/>
<rect x="1400.5" y="829.864" width="33.3636" height="15.3636" rx="3.5" stroke="white"/>
<rect x="1433.82" y="834.273" width="2.18182" height="6.54545" rx="1" fill="white"/>
<path d="M943.605 380.704L941.877 379.056V375.12L943.605 373.552V380.704ZM943.557 365.84V372.992L941.829 371.44V367.488L943.557 365.84ZM948.738 381.408L950.386 379.68H954.338L955.89 381.408H948.738ZM948.258 373.552L949.986 375.216V379.136L948.258 380.704V373.552ZM950.114 374.128C949.741 373.829 949.362 373.536 948.978 373.248L950.114 372.4H954.482L955.602 373.248L954.482 374.128H950.114ZM948.722 365.152H955.874L954.29 366.88H950.37L948.722 365.152ZM956.354 365.84V372.992L954.626 371.44V367.488L956.354 365.84ZM958.703 379.04H960.719V381.088H958.703V379.04ZM963.177 381.408L964.793 379.68H968.761L970.313 381.408H963.177ZM970.809 380.704L969.097 379.056V375.12L970.809 373.552V380.704ZM964.521 374.128C964.158 373.829 963.785 373.536 963.401 373.248L964.521 372.4H968.889L970.009 373.248L968.889 374.128H964.521ZM963.129 365.152H970.297L968.729 366.88H964.777L963.129 365.152ZM970.761 365.84V372.992L969.049 371.44V367.488L970.761 365.84ZM975.926 381.408L977.574 379.68H981.526L983.078 381.408H975.926ZM975.446 373.552L977.174 375.216V379.136L975.446 380.704V373.552ZM983.59 380.704L981.862 379.056V375.12L983.59 373.552V380.704ZM975.91 365.152H983.062L981.478 366.88H977.558L975.91 365.152ZM975.398 372.992V365.84L977.126 367.392V371.36L975.398 372.992ZM983.542 365.84V372.992L981.814 371.44V367.488L983.542 365.84Z" fill="white"/>
<path d="M956.402 962.704L954.674 961.056V957.12L956.402 955.552V962.704ZM950.114 956.128C949.741 955.829 949.362 955.536 948.978 955.248L950.114 954.4H954.482L955.602 955.248L954.482 956.128H950.114ZM948.722 947.152H955.874L954.29 948.88H950.37L948.722 947.152ZM948.21 954.992V947.84L949.938 949.392V953.36L948.21 954.992ZM956.354 947.84V954.992L954.626 953.44V949.488L956.354 947.84ZM961.535 963.408L963.183 961.68H967.135L968.687 963.408H961.535ZM961.055 955.552L962.783 957.216V961.136L961.055 962.704V955.552ZM962.911 956.128C962.538 955.829 962.159 955.536 961.775 955.248L962.911 954.4H967.279L968.399 955.248L967.279 956.128H962.911ZM961.519 947.152H968.671L967.087 948.88H963.167L961.519 947.152ZM969.151 947.84V954.992L967.423 953.44V949.488L969.151 947.84ZM976.892 945.52H978.908V947.568H976.892V945.52ZM987.369 963.408L989.017 961.68H992.969L994.537 963.408H987.369ZM986.905 955.552L988.617 957.216V961.136L986.905 962.704V955.552ZM987.353 947.152H994.489L992.937 948.88H988.985L987.353 947.152ZM986.857 954.992V947.84L988.569 949.392V953.36L986.857 954.992Z" fill="white"/>
<path d="M983.67 786H990M983.67 803H990M983.67 789.333H990M983.67 799.667H990M983.67 792.667H990M983.67 796.167H990M980.748 786C965.003 786 965.165 803 980.748 803L980.748 786Z" stroke="white" stroke-width="2"/>
<path d="M1327.67 378H1334M1327.67 395H1334M1327.67 381.333H1334M1327.67 391.667H1334M1327.67 384.667H1334M1327.67 388.167H1334M1324.75 378C1309 378 1309.17 395 1324.75 395L1324.75 378Z" stroke="#1E261A" stroke-width="2"/>
<path d="M936.33 799.667H930M936.33 789.333H930M936.33 796.333H930M936.33 792.833H930M939.252 803C954.997 803 954.835 786 939.252 786L939.252 803Z" stroke="white" stroke-width="2"/>
<path d="M1330.33 465.667H1324M1330.33 455.333H1324M1330.33 462.333H1324M1330.33 458.833H1324M1333.25 469C1349 469 1348.83 452 1333.25 452L1333.25 469Z" stroke="#1E261A" stroke-width="2"/>
<path d="M930.825 944.058H936M930.825 947.115H934.275M930.825 950.784H936M930.825 953.842H934.275M925.074 942.835C925.074 940.388 929.099 940.388 929.099 942.835V958.122C930.058 959.04 931.112 961.486 929.099 963.32C928.524 963.845 926.512 964.543 925.074 963.32C924.364 962.716 923.061 960.263 925.074 958.122V942.835Z" stroke="white"/>
<path d="M810.5 805V779H788.5V767L744 792.5L788.5 818V805H810.5Z" fill="#1E261A"/>
<defs>
<radialGradient id="paint0_radial_0_1" cx="0" cy="0" r="1" gradientUnits="userSpaceOnUse" gradientTransform="translate(980 461) rotate(-90) scale(520 1326)">
<stop stop-color="#1C7EF6"/>
<stop offset="1" stop-opacity="0"/>
</radialGradient>
<radialGradient id="paint1_radial_0_1" cx="0" cy="0" r="1" gradientUnits="userSpaceOnUse" gradientTransform="translate(1417.5 760) rotate(-89.8791) scale(237.001 222.246)">
<stop offset="0.0729167" stop-color="#02142D"/>
<stop offset="0.354167" stop-color="#0045A0"/>
<stop offset="0.896186" stop-color="#02142D"/>
</radialGradient>
<radialGradient id="paint2_radial_0_1" cx="0" cy="0" r="1" gradientUnits="userSpaceOnUse" gradientTransform="translate(501.5 748) rotate(-89.8791) scale(237.001 222.246)">
<stop offset="0.319308" stop-color="#0045A0"/>
<stop offset="0.896186" stop-color="#02142D"/>
</radialGradient>
<radialGradient id="paint3_radial_0_1" cx="0" cy="0" r="1" gradientUnits="userSpaceOnUse" gradientTransform="translate(959.5 475) rotate(-91.3741) scale(333.596 312.438)">
<stop offset="0.784979" stop-color="#0045A0"/>
<stop offset="0.973958" stop-color="#02142D"/>
</radialGradient>
<radialGradient id="paint4_radial_0_1" cx="0" cy="0" r="1" gradientUnits="userSpaceOnUse" gradientTransform="translate(961 475) rotate(90) scale(240)">
<stop offset="0.0416667"/>
<stop offset="0.229167" stop-color="#0D1031"/>
<stop offset="0.390625" stop-color="#282B6C"/>
<stop offset="0.677083" stop-color="#215CBE"/>
<stop offset="0.8125" stop-color="#1B81FC"/>
<stop offset="0.90625" stop-color="#104E99"/>
<stop offset="1" stop-color="#01070E"/>
</radialGradient>
<linearGradient id="paint5_linear_0_1" x1="1177" y1="857" x2="1092" y2="856" gradientUnits="userSpaceOnUse">
<stop offset="0.105152" stop-color="#84DE13"/>
<stop offset="1" stop-color="#AED67D" stop-opacity="0"/>
</linearGradient>
<linearGradient id="paint6_linear_0_1" x1="743.5" y1="852" x2="828.5" y2="853" gradientUnits="userSpaceOnUse">
<stop offset="0.105152" stop-color="#84DE13"/>
<stop offset="1" stop-color="#AED67D" stop-opacity="0"/>
</linearGradient>
</defs>
</svg>
